<svg xmlns="http://www.w3.org/2000/svg" xmlns:xlink="http://www.w3.org/1999/xlink" width="185" zoomAndPan="magnify" viewBox="0 0 138.75 41.25" height="55" preserveAspectRatio="xMidYMid meet" version="1.0"><defs><g/><clipPath id="a719c97fa9"><path d="M 5.175781 8.460938 L 26.574219 8.460938 L 26.574219 29.863281 L 5.175781 29.863281 Z M 5.175781 8.460938 " clip-rule="nonzero"/></clipPath></defs><g fill="#5d5a68" fill-opacity="1"><g transform="translate(31.469385, 27.377363)"><g><path d="M 17.4375 0 L 12.609375 0 L 6.203125 -9.6875 L 6.203125 0 L 1.375 0 L 1.375 -17.34375 L 6.203125 -17.34375 L 12.609375 -7.53125 L 12.609375 -17.34375 L 17.4375 -17.34375 Z M 17.4375 0 "/></g></g></g><g fill="#5d5a68" fill-opacity="1"><g transform="translate(50.283725, 27.377363)"><g><path d="M 6.640625 -3.90625 L 13.84375 -3.90625 L 13.84375 0 L 1.234375 0 L 1.234375 -3.671875 L 8.359375 -13.453125 L 1.234375 -13.453125 L 1.234375 -17.34375 L 13.84375 -17.34375 L 13.84375 -13.671875 Z M 6.640625 -3.90625 "/></g></g></g><g fill="#5d5a68" fill-opacity="1"><g transform="translate(65.359796, 27.377363)"><g/></g></g><g fill="#5d5a68" fill-opacity="1"><g transform="translate(70.057236, 27.377363)"><g><path d="M 7.921875 0.171875 C 5.898438 0.171875 4.242188 -0.304688 2.953125 -1.265625 C 1.660156 -2.222656 0.960938 -3.597656 0.859375 -5.390625 L 6 -5.390625 C 6.050781 -4.773438 6.234375 -4.328125 6.546875 -4.046875 C 6.859375 -3.773438 7.257812 -3.640625 7.75 -3.640625 C 8.1875 -3.640625 8.546875 -3.75 8.828125 -3.96875 C 9.117188 -4.1875 9.265625 -4.492188 9.265625 -4.890625 C 9.265625 -5.398438 9.023438 -5.796875 8.546875 -6.078125 C 8.078125 -6.359375 7.3125 -6.671875 6.25 -7.015625 C 5.113281 -7.390625 4.195312 -7.75 3.5 -8.09375 C 2.800781 -8.445312 2.191406 -8.960938 1.671875 -9.640625 C 1.160156 -10.328125 0.90625 -11.222656 0.90625 -12.328125 C 0.90625 -13.441406 1.179688 -14.394531 1.734375 -15.1875 C 2.296875 -15.976562 3.066406 -16.578125 4.046875 -16.984375 C 5.035156 -17.398438 6.15625 -17.609375 7.40625 -17.609375 C 9.414062 -17.609375 11.023438 -17.132812 12.234375 -16.1875 C 13.441406 -15.25 14.085938 -13.925781 14.171875 -12.21875 L 8.921875 -12.21875 C 8.910156 -12.75 8.753906 -13.144531 8.453125 -13.40625 C 8.148438 -13.664062 7.757812 -13.796875 7.28125 -13.796875 C 6.914062 -13.796875 6.617188 -13.6875 6.390625 -13.46875 C 6.160156 -13.257812 6.046875 -12.957031 6.046875 -12.5625 C 6.046875 -12.238281 6.171875 -11.957031 6.421875 -11.71875 C 6.679688 -11.476562 7 -11.269531 7.375 -11.09375 C 7.75 -10.925781 8.304688 -10.710938 9.046875 -10.453125 C 10.148438 -10.078125 11.054688 -9.703125 11.765625 -9.328125 C 12.484375 -8.960938 13.097656 -8.445312 13.609375 -7.78125 C 14.128906 -7.113281 14.390625 -6.273438 14.390625 -5.265625 C 14.390625 -4.234375 14.128906 -3.304688 13.609375 -2.484375 C 13.097656 -1.660156 12.351562 -1.007812 11.375 -0.53125 C 10.394531 -0.0625 9.242188 0.171875 7.921875 0.171875 Z M 7.921875 0.171875 "/></g></g></g><g fill="#5d5a68" fill-opacity="1"><g transform="translate(85.305461, 27.377363)"><g><path d="M 10.453125 -13.921875 C 12.023438 -13.921875 13.273438 -13.390625 14.203125 -12.328125 C 15.128906 -11.273438 15.59375 -9.847656 15.59375 -8.046875 L 15.59375 0 L 10.765625 0 L 10.765625 -7.40625 C 10.765625 -8.1875 10.5625 -8.800781 10.15625 -9.25 C 9.75 -9.707031 9.203125 -9.9375 8.515625 -9.9375 C 7.785156 -9.9375 7.21875 -9.707031 6.8125 -9.25 C 6.40625 -8.800781 6.203125 -8.1875 6.203125 -7.40625 L 6.203125 0 L 1.375 0 L 1.375 -18.203125 L 6.203125 -18.203125 L 6.203125 -11.828125 C 6.628906 -12.453125 7.207031 -12.957031 7.9375 -13.34375 C 8.664062 -13.726562 9.503906 -13.921875 10.453125 -13.921875 Z M 10.453125 -13.921875 "/></g></g></g><g fill="#5d5a68" fill-opacity="1"><g transform="translate(102.176891, 27.377363)"><g><path d="M 7.796875 0.171875 C 6.421875 0.171875 5.1875 -0.113281 4.09375 -0.6875 C 3 -1.257812 2.140625 -2.078125 1.515625 -3.140625 C 0.898438 -4.210938 0.59375 -5.46875 0.59375 -6.90625 C 0.59375 -8.332031 0.90625 -9.578125 1.53125 -10.640625 C 2.164062 -11.710938 3.023438 -12.535156 4.109375 -13.109375 C 5.203125 -13.679688 6.441406 -13.96875 7.828125 -13.96875 C 9.203125 -13.96875 10.429688 -13.679688 11.515625 -13.109375 C 12.609375 -12.535156 13.46875 -11.710938 14.09375 -10.640625 C 14.726562 -9.578125 15.046875 -8.332031 15.046875 -6.90625 C 15.046875 -5.476562 14.726562 -4.226562 14.09375 -3.15625 C 13.46875 -2.082031 12.601562 -1.257812 11.5 -0.6875 C 10.40625 -0.113281 9.171875 0.171875 7.796875 0.171875 Z M 7.796875 -4.015625 C 8.460938 -4.015625 9.019531 -4.265625 9.46875 -4.765625 C 9.925781 -5.265625 10.15625 -5.976562 10.15625 -6.90625 C 10.15625 -7.84375 9.925781 -8.554688 9.46875 -9.046875 C 9.019531 -9.535156 8.472656 -9.78125 7.828125 -9.78125 C 7.171875 -9.78125 6.617188 -9.535156 6.171875 -9.046875 C 5.734375 -8.554688 5.515625 -7.84375 5.515625 -6.90625 C 5.515625 -5.957031 5.722656 -5.238281 6.140625 -4.75 C 6.566406 -4.257812 7.117188 -4.015625 7.796875 -4.015625 Z M 7.796875 -4.015625 "/></g></g></g><g fill="#5d5a68" fill-opacity="1"><g transform="translate(117.818618, 27.377363)"><g><path d="M 6.203125 -11.875 C 6.578125 -12.519531 7.109375 -13.03125 7.796875 -13.40625 C 8.484375 -13.78125 9.296875 -13.96875 10.234375 -13.96875 C 11.328125 -13.96875 12.320312 -13.679688 13.21875 -13.109375 C 14.113281 -12.535156 14.816406 -11.710938 15.328125 -10.640625 C 15.847656 -9.578125 16.109375 -8.332031 16.109375 -6.90625 C 16.109375 -5.476562 15.847656 -4.226562 15.328125 -3.15625 C 14.816406 -2.082031 14.113281 -1.257812 13.21875 -0.6875 C 12.320312 -0.113281 11.328125 0.171875 10.234375 0.171875 C 9.296875 0.171875 8.484375 -0.015625 7.796875 -0.390625 C 7.117188 -0.765625 6.585938 -1.273438 6.203125 -1.921875 L 6.203125 6.59375 L 1.375 6.59375 L 1.375 -13.796875 L 6.203125 -13.796875 Z M 11.21875 -6.90625 C 11.21875 -7.8125 10.972656 -8.515625 10.484375 -9.015625 C 10.003906 -9.515625 9.410156 -9.765625 8.703125 -9.765625 C 8.003906 -9.765625 7.410156 -9.507812 6.921875 -9 C 6.441406 -8.488281 6.203125 -7.789062 6.203125 -6.90625 C 6.203125 -6.007812 6.441406 -5.304688 6.921875 -4.796875 C 7.410156 -4.285156 8.003906 -4.03125 8.703125 -4.03125 C 9.410156 -4.03125 10.003906 -4.285156 10.484375 -4.796875 C 10.972656 -5.316406 11.21875 -6.019531 11.21875 -6.90625 Z M 11.21875 -6.90625 "/></g></g></g><g clip-path="url(#a719c97fa9)"><path fill="#d50000" d="M 11.59375 25.582031 C 10.414062 25.582031 9.464844 26.539062 9.464844 27.722656 C 9.464844 28.902344 10.414062 29.863281 11.59375 29.863281 C 12.777344 29.863281 13.734375 28.902344 13.734375 27.722656 C 13.734375 26.539062 12.777344 25.582031 11.59375 25.582031 Z M 5.175781 8.460938 L 5.175781 10.601562 L 7.316406 10.601562 L 11.160156 18.71875 L 9.71875 21.339844 C 9.550781 21.648438 9.453125 21.996094 9.453125 22.371094 C 9.453125 23.554688 10.414062 24.511719 11.59375 24.511719 L 24.433594 24.511719 L 24.433594 22.371094 L 12.050781 22.371094 C 11.898438 22.371094 11.78125 22.253906 11.78125 22.105469 C 11.78125 22.054688 11.792969 22.011719 11.8125 21.976562 L 12.773438 20.230469 L 20.742188 20.230469 C 21.546875 20.230469 22.246094 19.789062 22.617188 19.128906 L 26.441406 12.183594 C 26.527344 12.035156 26.574219 11.859375 26.574219 11.671875 C 26.574219 11.078125 26.09375 10.601562 25.503906 10.601562 L 9.683594 10.601562 L 8.667969 8.460938 Z M 22.292969 25.582031 C 21.113281 25.582031 20.164062 26.539062 20.164062 27.722656 C 20.164062 28.902344 21.113281 29.863281 22.292969 29.863281 C 23.476562 29.863281 24.433594 28.902344 24.433594 27.722656 C 24.433594 26.539062 23.476562 25.582031 22.292969 25.582031 Z M 22.292969 25.582031 " fill-opacity="1" fill-rule="nonzero"/></g></svg>