<svg xmlns="http://www.w3.org/2000/svg" xmlns:xlink="http://www.w3.org/1999/xlink" width="185" zoomAndPan="magnify" viewBox="0 0 138.75 41.25" height="55" preserveAspectRatio="xMidYMid meet" version="1.0"><defs><g/><clipPath id="137364bafa"><path d="M 1.117188 0 L 137.386719 0 L 137.386719 40.511719 L 1.117188 40.511719 Z M 1.117188 0 " clip-rule="nonzero"/></clipPath><clipPath id="0e580b57b8"><path d="M 5.175781 8.460938 L 26.574219 8.460938 L 26.574219 29.863281 L 5.175781 29.863281 Z M 5.175781 8.460938 " clip-rule="nonzero"/></clipPath></defs><g clip-path="url(#137364bafa)"><path fill="#ffffff" d="M 1.117188 0 L 137.632812 0 L 137.632812 47.964844 L 1.117188 47.964844 Z M 1.117188 0 " fill-opacity="1" fill-rule="nonzero"/><path fill="#ffffff" d="M 1.117188 0 L 137.632812 0 L 137.632812 40.585938 L 1.117188 40.585938 Z M 1.117188 0 " fill-opacity="1" fill-rule="nonzero"/><path fill="#d50000" d="M 1.117188 0 L 137.632812 0 L 137.632812 40.585938 L 1.117188 40.585938 Z M 1.117188 0 " fill-opacity="1" fill-rule="nonzero"/></g><g fill="#ffffff" fill-opacity="1"><g transform="translate(32.443688, 28.853232)"><g><path d="M 17.78125 0 L 13.046875 0 L 5.421875 -13.28125 L 5.3125 -13.28125 C 5.34375 -12.726562 5.367188 -12.171875 5.390625 -11.609375 C 5.410156 -11.046875 5.429688 -10.488281 5.453125 -9.9375 C 5.484375 -9.382812 5.507812 -8.828125 5.53125 -8.265625 L 5.53125 0 L 2.203125 0 L 2.203125 -17.5625 L 6.90625 -17.5625 L 14.53125 -4.40625 L 14.609375 -4.40625 C 14.597656 -4.945312 14.578125 -5.484375 14.546875 -6.015625 C 14.523438 -6.554688 14.503906 -7.09375 14.484375 -7.625 C 14.460938 -8.164062 14.445312 -8.707031 14.4375 -9.25 L 14.4375 -17.5625 L 17.78125 -17.5625 Z M 17.78125 0 "/></g></g></g><g fill="#ffffff" fill-opacity="1"><g transform="translate(52.438301, 28.853232)"><g><path d="M 13.65625 0 L 0.59375 0 L 0.59375 -2.40625 L 9 -14.484375 L 0.8125 -14.484375 L 0.8125 -17.5625 L 13.421875 -17.5625 L 13.421875 -15.15625 L 5.015625 -3.078125 L 13.65625 -3.078125 Z M 13.65625 0 "/></g></g></g><g fill="#ffffff" fill-opacity="1"><g transform="translate(66.680705, 28.853232)"><g/></g></g><g fill="#ffffff" fill-opacity="1"><g transform="translate(73.069372, 28.853232)"><g><path d="M 12.578125 -4.875 C 12.578125 -3.832031 12.320312 -2.925781 11.8125 -2.15625 C 11.3125 -1.394531 10.578125 -0.804688 9.609375 -0.390625 C 8.648438 0.0234375 7.476562 0.234375 6.09375 0.234375 C 5.488281 0.234375 4.894531 0.191406 4.3125 0.109375 C 3.738281 0.0351562 3.179688 -0.078125 2.640625 -0.234375 C 2.109375 -0.390625 1.601562 -0.582031 1.125 -0.8125 L 1.125 -4.28125 C 1.957031 -3.90625 2.820312 -3.566406 3.71875 -3.265625 C 4.613281 -2.972656 5.503906 -2.828125 6.390625 -2.828125 C 6.992188 -2.828125 7.484375 -2.90625 7.859375 -3.0625 C 8.234375 -3.226562 8.503906 -3.453125 8.671875 -3.734375 C 8.835938 -4.015625 8.921875 -4.335938 8.921875 -4.703125 C 8.921875 -5.140625 8.769531 -5.515625 8.46875 -5.828125 C 8.175781 -6.140625 7.769531 -6.429688 7.25 -6.703125 C 6.738281 -6.972656 6.160156 -7.265625 5.515625 -7.578125 C 5.109375 -7.765625 4.660156 -7.992188 4.171875 -8.265625 C 3.691406 -8.546875 3.234375 -8.882812 2.796875 -9.28125 C 2.367188 -9.6875 2.015625 -10.175781 1.734375 -10.75 C 1.460938 -11.320312 1.328125 -12.007812 1.328125 -12.8125 C 1.328125 -13.863281 1.566406 -14.757812 2.046875 -15.5 C 2.535156 -16.25 3.222656 -16.820312 4.109375 -17.21875 C 5.003906 -17.613281 6.0625 -17.8125 7.28125 -17.8125 C 8.1875 -17.8125 9.050781 -17.703125 9.875 -17.484375 C 10.707031 -17.273438 11.578125 -16.972656 12.484375 -16.578125 L 11.28125 -13.671875 C 10.476562 -14.003906 9.753906 -14.257812 9.109375 -14.4375 C 8.472656 -14.613281 7.820312 -14.703125 7.15625 -14.703125 C 6.6875 -14.703125 6.285156 -14.628906 5.953125 -14.484375 C 5.628906 -14.335938 5.382812 -14.128906 5.21875 -13.859375 C 5.050781 -13.597656 4.96875 -13.289062 4.96875 -12.9375 C 4.96875 -12.519531 5.085938 -12.164062 5.328125 -11.875 C 5.578125 -11.59375 5.945312 -11.316406 6.4375 -11.046875 C 6.9375 -10.785156 7.550781 -10.484375 8.28125 -10.140625 C 9.175781 -9.710938 9.941406 -9.269531 10.578125 -8.8125 C 11.222656 -8.351562 11.71875 -7.8125 12.0625 -7.1875 C 12.40625 -6.5625 12.578125 -5.789062 12.578125 -4.875 Z M 12.578125 -4.875 "/></g></g></g><g fill="#ffffff" fill-opacity="1"><g transform="translate(86.615267, 28.853232)"><g><path d="M 5.578125 -18.6875 L 5.578125 -14.875 C 5.578125 -14.207031 5.554688 -13.570312 5.515625 -12.96875 C 5.472656 -12.375 5.441406 -11.953125 5.421875 -11.703125 L 5.609375 -11.703125 C 5.898438 -12.171875 6.242188 -12.546875 6.640625 -12.828125 C 7.035156 -13.117188 7.472656 -13.332031 7.953125 -13.46875 C 8.429688 -13.601562 8.945312 -13.671875 9.5 -13.671875 C 10.46875 -13.671875 11.3125 -13.5 12.03125 -13.15625 C 12.75 -12.820312 13.304688 -12.289062 13.703125 -11.5625 C 14.109375 -10.84375 14.3125 -9.90625 14.3125 -8.75 L 14.3125 0 L 10.65625 0 L 10.65625 -7.84375 C 10.65625 -8.800781 10.476562 -9.523438 10.125 -10.015625 C 9.769531 -10.503906 9.222656 -10.75 8.484375 -10.75 C 7.753906 -10.75 7.175781 -10.578125 6.75 -10.234375 C 6.320312 -9.898438 6.019531 -9.398438 5.84375 -8.734375 C 5.664062 -8.078125 5.578125 -7.269531 5.578125 -6.3125 L 5.578125 0 L 1.921875 0 L 1.921875 -18.6875 Z M 5.578125 -18.6875 "/></g></g></g><g fill="#ffffff" fill-opacity="1"><g transform="translate(102.779075, 28.853232)"><g><path d="M 14.125 -6.734375 C 14.125 -5.617188 13.972656 -4.628906 13.671875 -3.765625 C 13.367188 -2.898438 12.929688 -2.164062 12.359375 -1.5625 C 11.785156 -0.96875 11.097656 -0.519531 10.296875 -0.21875 C 9.492188 0.0820312 8.585938 0.234375 7.578125 0.234375 C 6.628906 0.234375 5.757812 0.0820312 4.96875 -0.21875 C 4.1875 -0.519531 3.503906 -0.96875 2.921875 -1.5625 C 2.335938 -2.164062 1.890625 -2.898438 1.578125 -3.765625 C 1.265625 -4.628906 1.109375 -5.617188 1.109375 -6.734375 C 1.109375 -8.222656 1.367188 -9.484375 1.890625 -10.515625 C 2.421875 -11.546875 3.175781 -12.328125 4.15625 -12.859375 C 5.132812 -13.398438 6.300781 -13.671875 7.65625 -13.671875 C 8.90625 -13.671875 10.015625 -13.398438 10.984375 -12.859375 C 11.960938 -12.328125 12.726562 -11.546875 13.28125 -10.515625 C 13.84375 -9.484375 14.125 -8.222656 14.125 -6.734375 Z M 4.84375 -6.734375 C 4.84375 -5.859375 4.9375 -5.117188 5.125 -4.515625 C 5.320312 -3.910156 5.625 -3.457031 6.03125 -3.15625 C 6.4375 -2.851562 6.96875 -2.703125 7.625 -2.703125 C 8.269531 -2.703125 8.796875 -2.851562 9.203125 -3.15625 C 9.609375 -3.457031 9.90625 -3.910156 10.09375 -4.515625 C 10.28125 -5.117188 10.375 -5.859375 10.375 -6.734375 C 10.375 -7.617188 10.28125 -8.351562 10.09375 -8.9375 C 9.90625 -9.53125 9.609375 -9.972656 9.203125 -10.265625 C 8.796875 -10.566406 8.257812 -10.71875 7.59375 -10.71875 C 6.632812 -10.71875 5.9375 -10.382812 5.5 -9.71875 C 5.0625 -9.0625 4.84375 -8.066406 4.84375 -6.734375 Z M 4.84375 -6.734375 "/></g></g></g><g fill="#ffffff" fill-opacity="1"><g transform="translate(118.006199, 28.853232)"><g><path d="M 9.390625 -13.671875 C 10.898438 -13.671875 12.117188 -13.082031 13.046875 -11.90625 C 13.984375 -10.726562 14.453125 -9.003906 14.453125 -6.734375 C 14.453125 -5.210938 14.234375 -3.929688 13.796875 -2.890625 C 13.359375 -1.859375 12.75 -1.078125 11.96875 -0.546875 C 11.195312 -0.0234375 10.304688 0.234375 9.296875 0.234375 C 8.648438 0.234375 8.09375 0.15625 7.625 0 C 7.15625 -0.164062 6.753906 -0.378906 6.421875 -0.640625 C 6.097656 -0.898438 5.816406 -1.179688 5.578125 -1.484375 L 5.390625 -1.484375 C 5.453125 -1.160156 5.5 -0.828125 5.53125 -0.484375 C 5.5625 -0.148438 5.578125 0.175781 5.578125 0.5 L 5.578125 5.90625 L 1.921875 5.90625 L 1.921875 -13.421875 L 4.90625 -13.421875 L 5.421875 -11.6875 L 5.578125 -11.6875 C 5.816406 -12.039062 6.109375 -12.367188 6.453125 -12.671875 C 6.804688 -12.984375 7.222656 -13.226562 7.703125 -13.40625 C 8.191406 -13.582031 8.753906 -13.671875 9.390625 -13.671875 Z M 8.21875 -10.75 C 7.570312 -10.75 7.0625 -10.613281 6.6875 -10.34375 C 6.3125 -10.082031 6.035156 -9.6875 5.859375 -9.15625 C 5.691406 -8.632812 5.597656 -7.96875 5.578125 -7.15625 L 5.578125 -6.765625 C 5.578125 -5.898438 5.660156 -5.164062 5.828125 -4.5625 C 5.992188 -3.957031 6.269531 -3.5 6.65625 -3.1875 C 7.039062 -2.875 7.578125 -2.71875 8.265625 -2.71875 C 8.828125 -2.71875 9.285156 -2.875 9.640625 -3.1875 C 10.003906 -3.5 10.273438 -3.957031 10.453125 -4.5625 C 10.628906 -5.164062 10.71875 -5.90625 10.71875 -6.78125 C 10.71875 -8.09375 10.515625 -9.082031 10.109375 -9.75 C 9.703125 -10.414062 9.070312 -10.75 8.21875 -10.75 Z M 8.21875 -10.75 "/></g></g></g><g clip-path="url(#0e580b57b8)"><path fill="#ffffff" d="M 11.59375 25.582031 C 10.414062 25.582031 9.464844 26.539062 9.464844 27.722656 C 9.464844 28.902344 10.414062 29.863281 11.59375 29.863281 C 12.777344 29.863281 13.734375 28.902344 13.734375 27.722656 C 13.734375 26.539062 12.777344 25.582031 11.59375 25.582031 Z M 5.175781 8.460938 L 5.175781 10.601562 L 7.316406 10.601562 L 11.160156 18.71875 L 9.71875 21.339844 C 9.550781 21.648438 9.453125 21.996094 9.453125 22.371094 C 9.453125 23.554688 10.414062 24.511719 11.59375 24.511719 L 24.433594 24.511719 L 24.433594 22.371094 L 12.050781 22.371094 C 11.898438 22.371094 11.78125 22.253906 11.78125 22.105469 C 11.78125 22.054688 11.792969 22.011719 11.8125 21.976562 L 12.773438 20.230469 L 20.742188 20.230469 C 21.546875 20.230469 22.246094 19.789062 22.617188 19.128906 L 26.441406 12.183594 C 26.527344 12.035156 26.574219 11.859375 26.574219 11.671875 C 26.574219 11.078125 26.09375 10.601562 25.503906 10.601562 L 9.683594 10.601562 L 8.667969 8.460938 Z M 22.292969 25.582031 C 21.113281 25.582031 20.164062 26.539062 20.164062 27.722656 C 20.164062 28.902344 21.113281 29.863281 22.292969 29.863281 C 23.476562 29.863281 24.433594 28.902344 24.433594 27.722656 C 24.433594 26.539062 23.476562 25.582031 22.292969 25.582031 Z M 22.292969 25.582031 " fill-opacity="1" fill-rule="nonzero"/></g></svg>